<svg width="335" height="77" viewBox="0 0 335 77" fill="none" xmlns="http://www.w3.org/2000/svg">
<path d="M44.8712 23.5664L81.2136 34.9481C90.9637 38.0098 95 43.6508 95 52.6681C95 56.1859 93.9883 59.5989 93.2964 61.1979L85.1504 59.5255C85.4282 58.7233 86.1988 56.5319 86.1988 53.4336C86.1988 50.613 84.8044 48.3168 81.6697 47.7244L78.4354 49.4334L44.8712 62V49.3653L69.241 42.2301V41.8841L44.8712 36.0281V23.5664Z" fill="white"/>
<path d="M18.0061 52.9355C14.0013 52.4637 11.417 49.6222 11.417 42.681V15H0V43.027C0 54.912 6.74116 61.5858 18.0061 61.9843V52.9355Z" fill="white"/>
<path d="M26.8808 23.5664V43.4831C26.8808 49.9105 24.3751 52.6681 20.1606 52.9932V61.9738C31.3364 61.4967 38.303 54.5502 38.303 43.0322V23.5664H26.8808Z" fill="white"/>
<path fill-rule="evenodd" clip-rule="evenodd" d="M218.819 50.9791C218.3 49.2101 216.083 47.8699 214.512 48.8456C212.41 50.1498 210.92 49.3462 209.175 48.3321C207.153 47.1562 205.018 46.1805 202.94 45.1022C200.864 44.029 198.782 42.9661 196.739 41.8313C195.975 41.4077 195.476 40.735 196.515 40.0392C197.56 39.3383 201.335 40.0649 202.145 41.0688C203.951 43.305 206.618 43.7569 208.482 42.1445C210.385 40.4962 210.388 37.7619 208.493 35.9493C206.506 34.0519 204.241 34.3087 202.262 36.6579C201.274 37.8312 197.499 38.2574 196.347 37.2407C195.305 36.3215 195.31 35.2484 196.436 34.3908C197.674 33.4486 198.981 32.5859 200.29 31.7438C201.332 31.0763 202.18 30.4832 203.688 31.3176C205.502 32.3215 208.345 30.6321 208.895 28.7065C209.794 24.7115 206.432 23.3072 204.218 23.9028C201.88 24.5318 201.694 27.2353 200.726 28.953C199.648 30.8657 194.521 33.4897 193.968 33.0147C193.415 32.5397 193.484 32.3677 194.238 30.4293C196.235 25.3714 198.726 20.6473 201.241 15.9411C201.615 15.2377 202.272 15.2043 203.034 15.2531C204.707 15.3635 205.917 14.5188 206.302 12.9013C206.679 11.3172 206.534 9.74846 204.886 8.7831C203.421 7.92557 201.964 8.19002 200.767 9.15795C199.417 10.2542 199.159 11.7357 200.013 13.3737C200.344 14.013 200.92 14.6369 200.369 15.5381C197.43 20.352 194.567 25.2148 191.604 30.0108C190.952 31.0685 190.015 31.3253 189.133 30.0749C187.954 28.4035 188.578 22.5369 190.106 21.225C191.895 19.6948 192.109 17.1222 190.593 15.4097C189.047 13.6664 186.637 13.71 184.851 15.5149C183.262 17.1222 183.394 19.6896 185.371 21.1531C186.528 22.0132 186.854 22.9657 186.754 24.2828C186.652 25.6769 186.497 27.0864 186.601 28.4729C186.78 30.7938 185.31 31.4691 183.57 31.3946C181.66 31.3099 180.99 30.0236 181.39 28.0698C181.958 25.2867 180.355 23.017 177.666 22.5652C175.485 22.198 173.106 24.2905 172.765 26.2135C172.535 27.4972 172.765 31.2714 177.123 31.6154C178.988 31.6668 180.185 31.5512 180.901 34.1007C181.397 36.4525 179.329 36.7708 178.763 36.7041C175.595 36.3318 172.548 37.1919 170.63 33.5538C169.527 31.4588 166.733 31.4511 164.962 32.989C163.281 34.4473 163.034 37.1739 164.433 38.8787C165.933 40.7093 168.32 40.9121 170.192 39.3665C172.609 37.3665 176.917 37.5539 179.609 39.8338C179.301 40.0315 179.044 40.278 178.741 40.3807C173.768 42.0264 168.765 43.5926 163.826 45.3384C162.683 45.7415 162.104 45.4694 161.361 44.7222C159.944 43.2999 158.306 43.1407 156.671 44.3114C155.168 45.3846 154.659 46.8994 155.237 48.6787C155.813 50.4476 157.152 51.4875 158.941 51.3745C160.798 51.259 162.354 50.1498 162.458 48.1703C162.532 46.7531 163.342 46.6684 164.208 46.4245C169.089 45.0432 173.972 43.6721 178.86 42.3294C180.577 41.857 182.388 43.3384 181.95 45.0509C181.367 47.3359 179.627 49.0689 178.56 51.1383C177.902 52.4066 176.856 51.4669 176.012 51.7185C173.717 52.4117 172.492 54.1114 172.925 56.4118C173.348 58.6532 175.032 59.6879 177.643 59.3207C179.329 59.0845 181.341 56.8072 180.575 55.4157C179.026 52.6171 181.028 51.0972 182.06 49.1382C183.214 46.9431 184.462 45.7312 187.338 46.5965C190.252 47.472 190.911 48.3115 189.309 50.9406C188.206 52.7506 188.247 54.5787 189.538 56.2963C190.883 58.0909 192.75 58.8535 194.801 58.0576C196.717 57.313 198.112 55.9086 198.034 53.4978C197.942 50.7583 196.908 49.4669 193.853 48.8224C192.216 48.4758 192.241 47.2922 192.297 46.0547C192.091 42.0341 196.882 43.9186 197.96 44.4116C201.885 46.1959 205.777 48.0599 209.728 49.7852C211.165 50.4143 212.145 50.9714 212.194 52.8842C212.24 54.8354 214.573 56.0909 216.455 55.5774C218.376 55.0485 219.423 53.0177 218.819 50.9791ZM205.706 36.9198C206.824 36.8787 207.833 37.9134 207.782 38.9789C207.728 40.0443 207.199 40.8993 205.871 40.9224C204.659 40.9404 203.895 40.3987 203.757 39.1406C203.599 37.6951 204.498 36.9557 205.706 36.9198ZM167.701 38.2369C166.419 38.2292 165.625 37.4153 165.693 36.0443C165.755 34.8068 166.57 34.2573 167.53 34.093C169.002 34.1803 169.568 35.0455 169.575 36.1726C169.583 37.328 168.9 38.2471 167.701 38.2369ZM158.622 49.413C157.428 49.3411 156.753 48.6581 156.809 47.3564C156.872 46.0239 157.677 45.5823 158.867 45.5181C160.051 45.6157 160.892 46.3577 160.884 47.4617C160.877 48.7275 159.924 49.49 158.622 49.413ZM187.844 42.504C185.71 42.4475 183.896 40.5681 183.932 38.4423C183.968 36.3626 185.967 34.5089 188.056 34.6193C190.361 34.74 191.867 36.396 191.783 38.717C191.698 41.1638 190.236 42.5656 187.844 42.504ZM193.313 50.8944C195.012 50.9483 195.922 51.8187 195.901 53.4772C195.881 55.1204 194.796 56.0909 193.313 56.096C191.798 56.1012 190.756 55.0434 190.746 53.4413C190.73 51.7981 191.721 50.9611 193.313 50.8944Z" fill="white"/>
<path fill-rule="evenodd" clip-rule="evenodd" d="M164.333 63.1847C162.542 63.1668 160.686 61.2463 160.724 59.4491C160.762 57.6673 162.497 56.0139 164.328 56.001C166.223 55.9907 167.978 57.8162 167.915 59.7366C167.864 61.4774 166.07 63.1976 164.333 63.1847Z" fill="white"/>
<path fill-rule="evenodd" clip-rule="evenodd" d="M205.278 57.9266C207.784 57.8675 209.135 59.6955 209.002 61.4363C208.847 63.4851 206.878 65.0384 205.189 65.041C203.332 65.0435 201.758 63.272 201.791 61.218C201.826 59.1718 203.128 57.9394 205.278 57.9266Z" fill="white"/>
<path fill-rule="evenodd" clip-rule="evenodd" d="M220.179 27.8233C220.174 29.7797 218.712 31.3972 216.893 31.4614C215.118 31.5204 213.33 29.6564 213.343 27.754C213.353 25.7359 215.001 24.0697 216.934 24.1287C218.689 24.1801 220.185 25.8797 220.179 27.8233Z" fill="white"/>
<path fill-rule="evenodd" clip-rule="evenodd" d="M164.254 24.863C161.796 24.9143 160.433 23.5664 160.454 21.4919C160.472 19.5715 162.066 17.9309 163.964 18.0978C165.991 18.2775 167.122 19.6742 167.133 21.5972C167.143 23.5818 165.958 24.8014 164.254 24.863Z" fill="white"/>
<path fill-rule="evenodd" clip-rule="evenodd" d="M186.706 68.9975C184.248 69.0489 182.887 67.7009 182.903 65.6264C182.921 63.7086 184.515 62.0654 186.413 62.2323C188.443 62.4146 189.577 63.8087 189.584 65.7343C189.594 67.7163 188.407 68.9385 186.706 68.9975Z" fill="white"/>
<path fill-rule="evenodd" clip-rule="evenodd" d="M176.621 14.8192C174.163 14.8705 172.8 13.5226 172.818 11.4481C172.836 9.53023 174.431 7.88963 176.328 8.05651C178.358 8.23623 179.492 9.63036 179.5 11.5559C179.507 13.5354 178.325 14.7576 176.621 14.8192Z" fill="white"/>
<path d="M233.382 8H241.714C244.99 8 247.499 8.65727 249.241 9.97437C250.981 11.2889 251.852 13.3685 251.852 16.2056C251.852 17.1607 251.712 18.013 251.429 18.7602C251.147 19.5099 250.795 20.1543 250.372 20.696C249.949 21.2378 249.496 21.7025 249.009 22.0902C248.523 22.4778 248.087 22.7859 247.703 23.0196L253.386 33.1225H246.513L241.981 24.3752H239.523V33.1225H233.379V8H233.382ZM239.526 12.9552V19.6896H243.787C244.147 19.5099 244.503 19.135 244.862 18.5676C245.222 18.0002 245.4 17.3044 245.4 16.4777C245.4 15.3172 245.087 14.4392 244.46 13.8461C243.833 13.253 242.983 12.9552 241.908 12.9552H239.526Z" fill="white"/>
<path d="M256.19 8H272.279V13.0322H262.334V17.9874H271.703V22.863H262.334V28.0492H272.663V33.1199H256.19V8Z" fill="white"/>
<path d="M276.12 33.1199V8H284.722C286.77 8 288.607 8.28499 290.232 8.85239C291.857 9.4198 293.232 10.2388 294.361 11.3094C295.487 12.3801 296.35 13.6766 296.954 15.1991C297.555 16.7216 297.856 18.4367 297.856 20.3469C297.856 22.3597 297.568 24.1544 296.992 25.7257C296.417 27.2995 295.579 28.6346 294.478 29.7309C293.378 30.8272 292.033 31.6667 290.446 32.247C288.859 32.8272 287.04 33.1173 284.992 33.1173H276.12V33.1199ZM284.76 28.3188C285.81 28.3188 286.732 28.1314 287.524 27.7565C288.316 27.3817 288.989 26.8528 289.539 26.1698C290.089 25.4869 290.504 24.673 290.787 23.7308C291.067 22.7885 291.21 21.7513 291.21 20.6139C291.21 18.0593 290.647 16.1106 289.521 14.7704C288.395 13.4302 286.872 12.7575 284.951 12.7575H282.264V28.3162H284.76V28.3188Z" fill="white"/>
<path d="M233.601 36.9043H234.515V44.3781H233.601V36.9043Z" fill="white"/>
<path d="M236.459 44.3781V36.9043H238.734C239.495 36.9043 240.091 37.0686 240.522 37.3998C240.952 37.731 241.166 38.1932 241.166 38.7939C241.166 39.1482 241.077 39.4692 240.899 39.7619C240.721 40.0546 240.471 40.2831 240.15 40.4525C240.575 40.5835 240.907 40.8145 241.143 41.1432C241.38 41.4744 241.497 41.8646 241.497 42.319C241.497 42.9712 241.261 43.477 240.789 43.839C240.318 44.201 239.661 44.3807 238.825 44.3807H236.459V44.3781ZM237.371 40.1624H239.371C239.638 40.0623 239.842 39.9005 239.987 39.672C240.132 39.4461 240.203 39.1791 240.203 38.871C240.203 38.4781 240.066 38.1752 239.793 37.9544C239.518 37.7361 239.139 37.6257 238.65 37.6257H237.371V40.1624ZM237.371 40.8992V43.6516H238.823C239.363 43.6516 239.783 43.5411 240.086 43.3178C240.387 43.0944 240.537 42.7889 240.537 42.3961C240.537 41.9288 240.387 41.5616 240.086 41.2972C239.786 41.0328 239.365 40.8992 238.823 40.8992H237.371Z" fill="white"/>
<path d="M247.175 37.6643H243.907V40.2317H247.061V40.9917H243.907V43.6182H247.29V44.3781H243.005V36.9043H247.175V37.6643Z" fill="white"/>
<path d="M248.9 44.3781V36.9043H251.162C251.946 36.9043 252.56 37.0943 253.001 37.4743C253.442 37.8543 253.663 38.3831 253.663 39.0584C253.663 39.2741 253.622 39.4897 253.543 39.7105C253.465 39.9288 253.352 40.1316 253.212 40.3139C253.072 40.4987 252.907 40.663 252.716 40.8094C252.525 40.9557 252.316 41.0661 252.086 41.1432L253.788 44.3781H252.805L251.251 41.3152H249.812V44.3781H248.9ZM249.814 40.5783H251.666C251.987 40.4859 252.239 40.3087 252.425 40.0417C252.611 39.7773 252.705 39.4769 252.705 39.138C252.705 38.6553 252.568 38.283 252.295 38.0211C252.02 37.7593 251.628 37.6283 251.118 37.6283H249.817V40.5783H249.814Z" fill="white"/>
<path d="M258.029 44.4937C257.512 44.4937 257.046 44.4064 256.636 44.2293C256.226 44.0521 255.877 43.8005 255.592 43.4745C255.306 43.1484 255.087 42.7479 254.934 42.2703C254.781 41.7953 254.705 41.2562 254.705 40.658C254.705 40.052 254.784 39.5103 254.939 39.0353C255.095 38.5604 255.319 38.1547 255.607 37.8209C255.897 37.4872 256.251 37.233 256.674 37.0558C257.097 36.8787 257.571 36.7914 258.095 36.7914C258.613 36.7914 259.076 36.8787 259.484 37.0558C259.891 37.233 260.238 37.4846 260.523 37.8107C260.808 38.1367 261.027 38.5372 261.18 39.0148C261.333 39.4898 261.409 40.0289 261.409 40.6272C261.409 41.2331 261.333 41.7748 261.18 42.2498C261.027 42.7248 260.806 43.1304 260.513 43.4642C260.22 43.798 259.863 44.0521 259.445 44.2293C259.025 44.4039 258.554 44.4937 258.029 44.4937ZM258.098 43.7107C258.837 43.7107 259.415 43.4462 259.828 42.9173C260.24 42.3884 260.449 41.6516 260.449 40.7067C260.449 39.7157 260.235 38.9455 259.81 38.3935C259.382 37.8415 258.786 37.5642 258.016 37.5642C257.278 37.5642 256.7 37.8286 256.284 38.3575C255.869 38.8864 255.663 39.6284 255.663 40.5809C255.663 41.5643 255.877 42.3319 256.307 42.8839C256.74 43.4334 257.336 43.7107 258.098 43.7107Z" fill="white"/>
<path d="M266.825 42.3755H263.705L262.984 44.3781H262L264.833 36.9043H265.679L268.524 44.3781H267.541L266.825 42.3755ZM263.982 41.6156H266.552L265.261 37.9184L263.982 41.6156Z" fill="white"/>
<path d="M269.67 36.9043H271.053L273.328 42.3062L275.603 36.9043H276.986V44.3781H276.107V37.8132L273.743 43.4205H272.921L270.567 37.8132V44.3781H269.675V36.9043H269.67Z" fill="white"/>
<path d="M283.028 37.6643H279.76V40.2317H282.913V40.9917H279.76V43.6182H283.143V44.3781H278.858V36.9043H283.028V37.6643Z" fill="white"/>
<path d="M284.753 44.3781V36.9043H287.015C287.799 36.9043 288.413 37.0943 288.854 37.4743C289.294 37.8543 289.516 38.3831 289.516 39.0584C289.516 39.2741 289.475 39.4897 289.396 39.7105C289.317 39.9288 289.205 40.1316 289.065 40.3139C288.925 40.4987 288.759 40.663 288.568 40.8094C288.377 40.9557 288.168 41.0661 287.939 41.1432L289.641 44.3781H288.658L287.104 41.3152H285.665V44.3781H284.753ZM285.667 40.5783H287.519C287.84 40.4859 288.092 40.3087 288.278 40.0417C288.464 39.7773 288.558 39.4769 288.558 39.138C288.558 38.6553 288.421 38.283 288.148 38.0211C287.873 37.7593 287.481 37.6283 286.971 37.6283H285.67V40.5783H285.667Z" fill="white"/>
<path d="M291.001 36.9043H291.916V44.3781H291.001V36.9043Z" fill="white"/>
<path d="M293.413 40.658C293.413 40.0906 293.497 39.5668 293.666 39.0918C293.834 38.6168 294.073 38.206 294.386 37.8646C294.7 37.5231 295.079 37.2587 295.53 37.0712C295.978 36.8838 296.483 36.7888 297.038 36.7888C297.336 36.7888 297.627 36.8248 297.912 36.8992C298.197 36.9711 298.439 37.0584 298.638 37.1585L298.409 37.862C298.225 37.785 298.019 37.7208 297.787 37.6669C297.555 37.613 297.306 37.5873 297.038 37.5873C296.641 37.5873 296.279 37.6515 295.953 37.7824C295.624 37.9134 295.347 38.1059 295.112 38.3575C294.881 38.6117 294.7 38.9224 294.57 39.2895C294.44 39.6592 294.376 40.0803 294.376 40.5553C294.376 41.0302 294.437 41.4641 294.56 41.8518C294.682 42.2395 294.863 42.5707 295.102 42.8429C295.342 43.115 295.637 43.3255 295.989 43.4719C296.34 43.6182 296.743 43.6901 297.199 43.6901C297.466 43.6901 297.723 43.6644 297.975 43.6105C298.228 43.5566 298.439 43.4924 298.615 43.4154L298.854 44.106C298.633 44.2216 298.368 44.314 298.06 44.3885C297.751 44.4603 297.438 44.4989 297.117 44.4989C296.539 44.4989 296.019 44.4064 295.563 44.2216C295.107 44.0367 294.718 43.7774 294.397 43.4436C294.076 43.1099 293.834 42.7068 293.666 42.2344C293.497 41.762 293.413 41.2356 293.413 40.658Z" fill="white"/>
<path d="M304.117 42.3755H300.997L300.276 44.3781H299.292L302.125 36.9043H302.971L305.816 44.3781H304.833L304.117 42.3755ZM301.274 41.6156H303.844L302.553 37.9184L301.274 41.6156Z" fill="white"/>
<path d="M307.854 38.0674V44.3781H306.962V36.9043H308.116L311.614 43.2151V36.9043H312.492V44.3781H311.338L307.854 38.0674Z" fill="white"/>
<path d="M318.455 42.3755H315.335L314.614 44.3781H313.631L316.464 36.9043H317.309L320.155 44.3781H319.171L318.455 42.3755ZM315.613 41.6156H318.183L316.891 37.9184L315.613 41.6156Z" fill="white"/>
<path d="M323.598 44.3781V36.9043H325.781C326.36 36.9043 326.869 36.9942 327.307 37.1739C327.745 37.3536 328.112 37.6103 328.41 37.939C328.708 38.2702 328.93 38.6604 329.078 39.1149C329.225 39.5667 329.299 40.07 329.299 40.6245C329.299 41.1842 329.218 41.6952 329.055 42.1573C328.892 42.6169 328.652 43.0123 328.341 43.3435C328.028 43.6747 327.649 43.9288 327.198 44.1086C326.749 44.2883 326.235 44.3781 325.654 44.3781H323.598ZM325.779 43.6515C326.146 43.6515 326.484 43.5874 326.795 43.4616C327.109 43.3358 327.379 43.1458 327.605 42.8967C327.835 42.6477 328.013 42.337 328.143 41.9699C328.273 41.6002 328.336 41.1791 328.336 40.7041C328.336 39.7362 328.105 38.9814 327.638 38.4422C327.175 37.9005 326.51 37.6309 325.652 37.6309H324.498V43.6541H325.779V43.6515Z" fill="white"/>
<path d="M334.885 37.6643H331.617V40.2317H334.771V40.9917H331.617V43.6182H335V44.3781H330.715V36.9043H334.885V37.6643Z" fill="white"/>
<path d="M233.601 48.3757H234.515V55.8496H233.601V48.3757Z" fill="white"/>
<path d="M237.348 49.5388V55.8496H236.456V48.3757H237.61L241.108 54.6865V48.3757H241.987V55.8496H240.833L237.348 49.5388Z" fill="white"/>
<path d="M249.654 48.3757L246.877 55.8496H245.907L243.13 48.3757H244.114L246.388 54.7661L248.673 48.3757H249.654Z" fill="white"/>
<path d="M254.886 49.1357H251.618V51.7031H254.771V52.4631H251.618V55.0896H255.001V55.8496H250.716V48.3757H254.886V49.1357Z" fill="white"/>
<path d="M256.348 54.7096C256.562 54.8174 256.822 54.9201 257.13 55.0151C257.438 55.1101 257.782 55.1589 258.164 55.1589C258.674 55.1589 259.079 55.0613 259.374 54.8662C259.67 54.671 259.82 54.3886 259.82 54.0189C259.82 53.6954 259.718 53.431 259.512 53.2256C259.305 53.0176 258.951 52.8122 258.45 52.6043L257.662 52.2577C257.191 52.0574 256.822 51.8058 256.559 51.5028C256.297 51.1999 256.165 50.7942 256.165 50.2884C256.165 49.9726 256.231 49.6902 256.363 49.436C256.496 49.1818 256.677 48.9687 256.901 48.7967C257.125 48.6247 257.382 48.4912 257.673 48.3988C257.963 48.3063 258.266 48.2601 258.587 48.2601C258.974 48.2601 259.326 48.3038 259.639 48.3859C259.952 48.4707 260.215 48.5657 260.426 48.6735L260.22 49.4001C260.021 49.3154 259.772 49.2383 259.471 49.1639C259.17 49.092 258.872 49.0535 258.574 49.0535C258.118 49.0535 257.757 49.1613 257.489 49.377C257.222 49.5926 257.089 49.8725 257.089 50.2165C257.089 50.5477 257.178 50.807 257.357 50.9996C257.535 51.1922 257.843 51.3744 258.276 51.5516L259.109 51.9213C259.649 52.1678 260.057 52.4502 260.332 52.7686C260.607 53.0869 260.742 53.4798 260.742 53.9496C260.742 54.594 260.513 55.0921 260.057 55.4413C259.601 55.7905 258.967 55.965 258.159 55.965C257.718 55.965 257.316 55.9086 256.954 55.7982C256.593 55.6878 256.312 55.5671 256.114 55.4361L256.348 54.7096Z" fill="white"/>
<path d="M261.422 48.3757H266.631V49.1357H264.484V55.8496H263.57V49.1357H261.422V48.3757Z" fill="white"/>
<path d="M267.775 48.3757H268.69V55.8496H267.775V48.3757Z" fill="white"/>
<path d="M275.944 55.354C275.707 55.5311 275.391 55.6775 274.997 55.7905C274.599 55.906 274.209 55.9625 273.82 55.9625C273.234 55.9625 272.714 55.8675 272.261 55.6801C271.807 55.4926 271.428 55.2282 271.117 54.8867C270.809 54.5452 270.577 54.1396 270.419 53.6723C270.264 53.205 270.185 52.689 270.185 52.1293C270.185 51.5696 270.266 51.0535 270.429 50.5811C270.592 50.1087 270.832 49.7005 271.143 49.3539C271.456 49.0073 271.835 48.7402 272.286 48.5477C272.735 48.3551 273.249 48.2601 273.83 48.2601C274.136 48.2601 274.444 48.2986 274.755 48.3757C275.068 48.4527 275.356 48.5605 275.623 48.6992L275.348 49.3795C275.157 49.3102 274.93 49.2383 274.668 49.1664C274.406 49.0946 274.113 49.056 273.794 49.056C273.412 49.056 273.061 49.1202 272.737 49.246C272.414 49.3718 272.133 49.5618 271.897 49.816C271.66 50.0702 271.476 50.3834 271.341 50.7557C271.209 51.128 271.143 51.5593 271.143 52.0523C271.143 52.5426 271.206 52.9842 271.336 53.3719C271.466 53.7596 271.652 54.0857 271.897 54.3501C272.141 54.6146 272.437 54.8174 272.783 54.9535C273.129 55.0921 273.517 55.1614 273.942 55.1614C274.125 55.1614 274.319 55.146 274.525 55.1152C274.732 55.0844 274.897 55.0433 275.027 54.9894V52.6967L273.588 52.6736V51.9701H275.942V55.354H275.944Z" fill="white"/>
<path d="M281.668 53.8444H278.547L277.827 55.847H276.843L279.676 48.3732H280.522L283.367 55.847H282.384L281.668 53.8444ZM278.823 53.0844H281.393L280.101 49.3873L278.823 53.0844Z" fill="white"/>
<path d="M284.513 55.8496V48.3757H286.694C287.272 48.3757 287.781 48.4656 288.219 48.6453C288.658 48.825 289.024 49.0818 289.322 49.4104C289.62 49.7416 289.842 50.1319 289.99 50.5863C290.138 51.0382 290.211 51.5414 290.211 52.096C290.211 52.6557 290.13 53.1666 289.967 53.6287C289.804 54.0883 289.564 54.4837 289.254 54.8149C288.94 55.1461 288.561 55.4003 288.11 55.58C287.662 55.7597 287.147 55.8496 286.566 55.8496H284.513ZM286.694 55.123C287.06 55.123 287.399 55.0588 287.71 54.933C288.023 54.8072 288.293 54.6172 288.52 54.3682C288.749 54.1191 288.928 53.8085 289.058 53.4413C289.187 53.0716 289.251 52.6505 289.251 52.1756C289.251 51.2076 289.019 50.4528 288.553 49.9136C288.09 49.3719 287.425 49.1023 286.566 49.1023H285.412V55.1256H286.694V55.123Z" fill="white"/>
<path d="M294.59 55.9625C294.073 55.9625 293.607 55.8752 293.197 55.698C292.787 55.5209 292.438 55.2693 292.152 54.9432C291.867 54.6171 291.648 54.2166 291.495 53.7391C291.342 53.2641 291.266 52.7249 291.266 52.1267C291.266 51.5208 291.345 50.9791 291.5 50.5041C291.656 50.0291 291.88 49.6234 292.168 49.2897C292.458 48.9559 292.812 48.7017 293.235 48.5246C293.658 48.3474 294.132 48.2601 294.656 48.2601C295.173 48.2601 295.637 48.3474 296.045 48.5246C296.452 48.7017 296.799 48.9533 297.084 49.2794C297.369 49.6055 297.588 50.006 297.741 50.4835C297.894 50.9585 297.97 51.4977 297.97 52.0959C297.97 52.7018 297.894 53.2436 297.741 53.7185C297.588 54.1935 297.367 54.5992 297.074 54.9329C296.781 55.2667 296.424 55.5209 296.006 55.698C295.586 55.8752 295.115 55.9625 294.59 55.9625ZM294.659 55.1794C295.398 55.1794 295.976 54.915 296.389 54.3861C296.801 53.8572 297.01 53.1203 297.01 52.1755C297.01 51.1845 296.796 50.4142 296.371 49.8622C295.943 49.3102 295.347 49.0329 294.577 49.0329C293.839 49.0329 293.261 49.2974 292.845 49.8263C292.43 50.3552 292.224 51.0972 292.224 52.0497C292.224 53.033 292.438 53.8007 292.868 54.3527C293.299 54.9047 293.895 55.1794 294.659 55.1794Z" fill="white"/>
<path d="M299.478 55.8496V48.3757H301.74C302.525 48.3757 303.139 48.5657 303.579 48.9457C304.02 49.3257 304.242 49.8546 304.242 50.5298C304.242 50.7455 304.201 50.9612 304.122 51.182C304.043 51.4002 303.931 51.603 303.791 51.7853C303.651 51.9702 303.485 52.1345 303.294 52.2808C303.103 52.4272 302.894 52.5376 302.665 52.6146L304.367 55.8496H303.383L301.829 52.7866H300.39V55.8496H299.478ZM300.393 52.0472H302.245C302.566 51.9548 302.818 51.7776 303.004 51.5106C303.19 51.2461 303.284 50.9457 303.284 50.6068C303.284 50.1242 303.146 49.7519 302.874 49.49C302.599 49.2281 302.206 49.0972 301.697 49.0972H300.395V52.0472H300.393Z" fill="white"/>
<path d="M309.932 49.1357H306.664V51.7031H309.818V52.4631H306.664V55.0896H310.047V55.8496H305.762V48.3757H309.932V49.1357Z" fill="white"/>
<path d="M311.394 54.7096C311.608 54.8174 311.868 54.9201 312.176 55.0151C312.485 55.1101 312.829 55.1589 313.211 55.1589C313.72 55.1589 314.125 55.0613 314.421 54.8662C314.716 54.671 314.866 54.3886 314.866 54.0189C314.866 53.6954 314.765 53.431 314.558 53.2256C314.352 53.0176 313.998 52.8122 313.496 52.6043L312.709 52.2577C312.238 52.0574 311.868 51.8058 311.606 51.5028C311.344 51.1999 311.211 50.7942 311.211 50.2884C311.211 49.9726 311.277 49.6902 311.41 49.436C311.542 49.1818 311.723 48.9687 311.947 48.7967C312.171 48.6247 312.429 48.4912 312.719 48.3988C313.009 48.3063 313.313 48.2601 313.634 48.2601C314.021 48.2601 314.372 48.3038 314.686 48.3859C314.999 48.4707 315.261 48.5657 315.473 48.6735L315.266 49.4001C315.068 49.3154 314.818 49.2383 314.517 49.1639C314.217 49.092 313.919 49.0535 313.621 49.0535C313.165 49.0535 312.803 49.1613 312.536 49.377C312.268 49.5926 312.136 49.8725 312.136 50.2165C312.136 50.5477 312.225 50.807 312.403 50.9996C312.581 51.1922 312.89 51.3744 313.323 51.5516L314.156 51.9213C314.696 52.1678 315.103 52.4502 315.378 52.7686C315.653 53.0869 315.788 53.4798 315.788 53.9496C315.788 54.594 315.559 55.0921 315.103 55.4413C314.647 55.7905 314.013 55.965 313.206 55.965C312.765 55.965 312.362 55.9086 312.001 55.7982C311.639 55.6878 311.359 55.5671 311.16 55.4361L311.394 54.7096Z" fill="white"/>
<path d="M323.756 49.1357H320.488V51.7031H323.642V52.4631H320.488V55.0896H323.871V55.8496H319.586V48.3757H323.756V49.1357Z" fill="white"/>
<path d="M326.375 49.5388V55.8496H325.483V48.3757H326.637L330.135 54.6865V48.3757H331.014V55.8496H329.86L326.375 49.5388Z" fill="white"/>
<path d="M233.598 67.3184V59.8754H235.748C236.53 59.8754 237.139 60.0705 237.58 60.4607C238.02 60.851 238.24 61.3902 238.24 62.0782C238.24 62.8048 238.015 63.3722 237.567 63.7805C237.119 64.1887 236.495 64.3941 235.69 64.3941H234.505V67.3184H233.598ZM234.508 63.6598H235.748C236.227 63.6598 236.602 63.5288 236.874 63.2644C237.147 63 237.284 62.6328 237.284 62.1578C237.284 61.6546 237.147 61.2669 236.874 60.9999C236.602 60.7329 236.207 60.5994 235.69 60.5994H234.505V63.6598H234.508Z" fill="white"/>
<path d="M240.438 64.3709C240.438 65.1128 240.598 65.6751 240.922 66.0577C241.245 66.4402 241.694 66.6302 242.269 66.6302C242.814 66.6302 243.247 66.4479 243.566 66.0808C243.884 65.7136 244.045 65.1873 244.045 64.4967V59.8753H244.944V64.4171C244.944 65.3645 244.702 66.1065 244.221 66.6353C243.739 67.1668 243.067 67.4313 242.201 67.4313C241.365 67.4313 240.71 67.1719 240.237 66.6507C239.763 66.1296 239.526 65.3978 239.526 64.4479V59.8701H240.435V64.3709H240.438Z" fill="white"/>
<path d="M246.696 67.3184V59.8754H248.961C249.72 59.8754 250.314 60.0397 250.742 60.3683C251.169 60.6969 251.383 61.1591 251.383 61.7573C251.383 62.109 251.294 62.43 251.116 62.7201C250.938 63.0102 250.688 63.2413 250.37 63.4082C250.795 63.5391 251.124 63.7676 251.36 64.0963C251.595 64.4249 251.715 64.8151 251.715 65.267C251.715 65.9166 251.48 66.4224 251.009 66.7818C250.538 67.1412 249.886 67.321 249.053 67.321H246.696V67.3184ZM247.606 63.1206H249.598C249.863 63.0205 250.069 62.8587 250.212 62.6328C250.357 62.4069 250.428 62.1424 250.428 61.8343C250.428 61.4441 250.291 61.1411 250.018 60.9229C249.746 60.7047 249.366 60.5968 248.879 60.5968H247.606V63.1206ZM247.606 63.8549V66.5969H249.05C249.588 66.5969 250.008 66.4865 250.308 66.2632C250.609 66.0424 250.757 65.7369 250.757 65.3466C250.757 64.8793 250.607 64.5147 250.308 64.2503C250.008 63.9859 249.59 63.8549 249.05 63.8549H247.606Z" fill="white"/>
<path d="M257.347 67.3184H253.296V59.8754H254.206V66.5636H257.347V67.3184Z" fill="white"/>
<path d="M258.485 59.8754H259.395V67.3184H258.485V59.8754Z" fill="white"/>
<path d="M260.887 63.6135C260.887 63.0487 260.971 62.5275 261.137 62.0525C261.302 61.5775 261.542 61.1719 261.853 60.8304C262.163 60.4889 262.543 60.227 262.991 60.0396C263.44 59.8522 263.939 59.7598 264.494 59.7598C264.79 59.7598 265.08 59.7957 265.365 59.8676C265.651 59.9395 265.89 60.0268 266.089 60.1243L265.862 60.8253C265.681 60.7482 265.472 60.684 265.243 60.6301C265.011 60.5762 264.764 60.5505 264.497 60.5505C264.102 60.5505 263.743 60.6147 263.417 60.7457C263.091 60.8766 262.81 61.0666 262.581 61.3182C262.349 61.5698 262.169 61.8805 262.041 62.2476C261.911 62.6148 261.848 63.0358 261.848 63.5108C261.848 63.9858 261.909 64.4145 262.028 64.8022C262.151 65.1874 262.329 65.5186 262.568 65.7881C262.808 66.0603 263.101 66.2682 263.45 66.412C263.799 66.5584 264.201 66.6303 264.657 66.6303C264.922 66.6303 265.182 66.6046 265.432 66.5507C265.681 66.4967 265.895 66.4326 266.068 66.3555L266.308 67.0436C266.089 67.1591 265.824 67.2516 265.518 67.3235C265.21 67.3954 264.897 67.4313 264.578 67.4313C264.003 67.4313 263.485 67.3389 263.03 67.1566C262.574 66.9743 262.186 66.715 261.868 66.3812C261.55 66.0474 261.308 65.6469 261.139 65.1771C260.971 64.7098 260.887 64.1886 260.887 63.6135Z" fill="white"/>
<path d="M267.543 59.8754H268.453V67.3184H267.543V59.8754Z" fill="white"/>
<path d="M270.389 67.3184V59.8754H272.561C273.137 59.8754 273.644 59.9652 274.08 60.1449C274.515 60.3247 274.882 60.5788 275.177 60.9075C275.473 61.2361 275.694 61.6264 275.842 62.0782C275.99 62.5301 276.064 63.0308 276.064 63.5802C276.064 64.1373 275.982 64.6483 275.819 65.1053C275.656 65.5648 275.419 65.9577 275.109 66.2863C274.798 66.6149 274.418 66.8691 273.97 67.0488C273.522 67.2285 273.01 67.3184 272.434 67.3184H270.389ZM272.561 66.5969C272.926 66.5969 273.262 66.5328 273.575 66.407C273.886 66.2812 274.156 66.0937 274.383 65.8447C274.609 65.5956 274.788 65.2875 274.918 64.9204C275.047 64.5533 275.111 64.1322 275.111 63.6572C275.111 62.6944 274.879 61.9422 274.416 61.403C273.952 60.8638 273.292 60.5943 272.437 60.5943H271.288V66.5944H272.561V66.5969Z" fill="white"/>
<path d="M281.337 65.3235H278.229L277.513 67.3184H276.535L279.357 59.8754H280.201L283.033 67.3184H282.055L281.337 65.3235ZM278.504 64.5661H281.064L279.778 60.8844L278.504 64.5661Z" fill="white"/>
<path d="M284.169 67.3184V59.8754H286.342C286.918 59.8754 287.425 59.9652 287.86 60.1449C288.296 60.3247 288.663 60.5788 288.958 60.9075C289.254 61.2361 289.475 61.6264 289.623 62.0782C289.771 62.5301 289.845 63.0308 289.845 63.5802C289.845 64.1373 289.763 64.6483 289.6 65.1053C289.437 65.5648 289.2 65.9577 288.889 66.2863C288.579 66.6149 288.199 66.8691 287.751 67.0488C287.302 67.2285 286.79 67.3184 286.215 67.3184H284.169ZM286.345 66.5969C286.709 66.5969 287.045 66.5328 287.358 66.407C287.669 66.2812 287.939 66.0937 288.166 65.8447C288.393 65.5956 288.571 65.2875 288.701 64.9204C288.831 64.5533 288.894 64.1322 288.894 63.6572C288.894 62.6944 288.663 61.9422 288.199 61.403C287.735 60.8638 287.076 60.5943 286.22 60.5943H285.071V66.5944H286.345V66.5969Z" fill="white"/>
<line x1="126" y1="4.37114e-08" x2="126" y2="77" stroke="white" stroke-width="2"/>
</svg>
