<svg width="262" height="60" viewBox="0 0 262 60" fill="none" xmlns="http://www.w3.org/2000/svg">
<g clip-path="url(#clip0)">
<path d="M57.3555 10.9347L103.81 25.4629C116.272 29.371 121.432 36.5715 121.432 48.0817C121.432 52.572 120.138 56.9284 119.254 58.9695L108.842 56.8348C109.197 55.8109 110.182 53.0137 110.182 49.0587C110.182 45.4584 108.399 42.5274 104.392 41.7712L100.258 43.9528L57.3555 59.9934V43.8658L88.5057 34.758V34.3164L57.3555 26.8415V10.9347Z" fill="black"/>
<path d="M14.5935 35.3335V0H0V35.7751C0 51.4209 9.16618 59.9933 24.3828 59.9933C24.4565 59.9933 24.3828 48.5166 24.3828 48.5166C18.4865 48.4162 14.5935 44.9632 14.5935 35.3335Z" fill="black"/>
<path d="M34.3599 10.9347V36.3574C34.3599 45.1105 30.7148 48.5367 24.6577 48.5367C24.5639 48.5367 24.4835 48.53 24.3896 48.53V60.0001C39.4723 59.9131 48.9534 50.9525 48.9534 35.7886V10.9347H34.3599Z" fill="#00AFCB"/>
<path d="M151.343 29.284C150.693 29.6721 149.895 30 148.944 30.2543C147.992 30.5086 147.048 30.6358 146.109 30.6358C144.542 30.6358 143.141 30.4149 141.908 29.9733C140.675 29.5316 139.623 28.8892 138.766 28.0527C137.901 27.2095 137.245 26.1856 136.796 24.9677C136.347 23.7564 136.119 22.3846 136.119 20.8588C136.119 19.3732 136.354 18.0214 136.823 16.8102C137.292 15.599 137.962 14.5617 138.84 13.6984C139.711 12.8352 140.763 12.1727 141.982 11.7042C143.208 11.2358 144.582 11.0016 146.116 11.0016C147.001 11.0016 147.892 11.102 148.803 11.3094C149.714 11.5169 150.451 11.7845 151.021 12.1191L150.023 15.6726C148.81 15.164 147.563 14.9097 146.29 14.9097C144.622 14.9097 143.356 15.4116 142.485 16.4087C141.613 17.4058 141.178 18.8245 141.178 20.6648C141.178 21.5882 141.292 22.4181 141.513 23.1609C141.741 23.9037 142.062 24.5394 142.485 25.0681C142.907 25.5967 143.416 26.0049 144.012 26.286C144.609 26.5671 145.272 26.7143 145.996 26.7143C146.679 26.7143 147.389 26.6474 148.126 26.5068C148.863 26.373 149.554 26.1455 150.197 25.8309L151.343 29.284Z" fill="black"/>
<path d="M165.782 30.3414L164.402 26.3463H157.963L156.582 30.3414H151.557L158.995 11.2827H163.343L170.814 30.3414H165.782ZM159.196 22.7929H163.135L161.253 17.3322H161.105L159.196 22.7929Z" fill="black"/>
<path d="M172.101 11.2827H178.627C181.079 11.2827 182.935 11.7846 184.195 12.7817C185.461 13.7788 186.091 15.3581 186.091 17.5062C186.091 18.5636 185.903 19.4937 185.535 20.2968C185.16 21.0998 184.65 21.769 184.007 22.311C183.357 22.8464 182.6 23.2546 181.729 23.529C180.858 23.8033 179.92 23.9372 178.922 23.9372H176.804V30.3347H172.101V11.2827ZM176.804 15.0436V20.3905H178.479C179.417 20.3905 180.101 20.1429 180.523 19.6543C180.945 19.1658 181.153 18.51 181.153 17.6869C181.153 16.8036 180.945 16.1478 180.523 15.7061C180.101 15.2644 179.518 15.0436 178.774 15.0436H176.804Z" fill="black"/>
<path d="M186.064 7.44149L193.354 3.47986L195.116 7.3545L187.062 9.58291L186.064 7.44149ZM187.947 11.2827H192.65V30.3413H187.947V11.2827Z" fill="black"/>
<path d="M199.411 15.1037H194.091V11.2893H209.435V15.1037H204.115V30.3413H199.411V15.1037Z" fill="black"/>
<path d="M215.432 22.6791C215.432 24.245 215.734 25.3492 216.33 25.9849C216.926 26.6207 217.717 26.9419 218.695 26.9419C219.674 26.9419 220.437 26.6407 220.987 26.0318C221.536 25.4228 221.811 24.419 221.811 23.007V11.2827H226.515V22.8196C226.515 24.0509 226.327 25.1484 225.959 26.1054C225.583 27.0623 225.054 27.8854 224.357 28.5546C223.66 29.2238 222.823 29.7458 221.845 30.0938C220.866 30.4485 219.754 30.6224 218.521 30.6224C216.049 30.6224 214.139 29.9599 212.772 28.6282C211.412 27.2965 210.729 25.3626 210.729 22.8129V11.2827H215.432V22.6791Z" fill="black"/>
<path d="M229.342 11.2827H234.046V26.4935H241.805V30.3414H229.342V11.2827Z" fill="black"/>
<path d="M251.246 30.6358C249.758 30.6358 248.425 30.4016 247.246 29.9332C246.066 29.4647 245.081 28.8022 244.277 27.9524C243.473 27.1025 242.863 26.0719 242.441 24.8674C242.019 23.6628 241.812 22.3244 241.812 20.8589C241.812 19.4134 242.033 18.0817 242.475 16.8638C242.917 15.6526 243.547 14.6086 244.371 13.7387C245.195 12.8687 246.2 12.1928 247.386 11.711C248.572 11.2292 249.919 10.9883 251.427 10.9883C252.914 10.9883 254.248 11.2158 255.413 11.6776C256.579 12.1393 257.564 12.7951 258.368 13.645C259.172 14.4949 259.782 15.5254 260.204 16.73C260.626 17.9345 260.834 19.2729 260.834 20.7384C260.834 22.204 260.62 23.5491 260.184 24.7603C259.749 25.9715 259.125 27.0155 258.301 27.8854C257.477 28.7554 256.472 29.4313 255.286 29.9131C254.1 30.3949 252.753 30.6358 251.246 30.6358ZM251.386 26.9352C252.659 26.9352 253.711 26.4199 254.536 25.396C255.36 24.3655 255.768 22.8933 255.768 20.9794C255.768 19.0387 255.366 17.5129 254.562 16.382C253.758 15.2577 252.653 14.6956 251.239 14.6956C249.966 14.6956 248.914 15.2109 248.09 16.2348C247.266 17.2653 246.857 18.7376 246.857 20.6515C246.857 22.5921 247.259 24.1246 248.063 25.2488C248.867 26.3731 249.979 26.9352 251.386 26.9352Z" fill="black"/>
<path d="M141.526 52.0367C141.526 53.6026 141.828 54.7068 142.424 55.3425C143.021 55.9782 143.811 56.2994 144.79 56.2994C145.768 56.2994 146.532 55.9983 147.081 55.3893C147.631 54.7804 147.905 53.7766 147.905 52.3646V40.647H152.609V52.1839C152.609 53.4152 152.421 54.5127 152.053 55.4696C151.678 56.4266 151.148 57.2497 150.451 57.9189C149.755 58.5948 148.917 59.1101 147.939 59.458C146.96 59.8127 145.848 59.9867 144.615 59.9867C142.143 59.9867 140.227 59.3242 138.866 57.9925C137.506 56.6608 136.823 54.7268 136.823 52.1772V40.647H141.526V52.0367Z" fill="black"/>
<path d="M155.43 40.647H161.808C164.314 40.647 166.237 41.1489 167.571 42.146C168.904 43.1431 169.567 44.7224 169.567 46.8705C169.567 47.5932 169.46 48.2423 169.246 48.8111C169.031 49.38 168.763 49.8685 168.435 50.2767C168.113 50.6849 167.765 51.0396 167.39 51.334C167.015 51.6285 166.686 51.8627 166.391 52.0367L170.74 59.6989H165.48L162.009 53.0605H160.127V59.6989H155.423V40.647H155.43ZM160.133 44.4078V49.5138H163.396C163.671 49.3733 163.946 49.0922 164.22 48.6639C164.495 48.2356 164.629 47.707 164.629 47.0779C164.629 46.1946 164.388 45.5321 163.912 45.0837C163.43 44.6354 162.78 44.4078 161.956 44.4078H160.133Z" fill="black"/>
<path d="M176.804 52.0367C176.804 53.6026 177.106 54.7068 177.702 55.3425C178.298 55.9782 179.089 56.2994 180.067 56.2994C181.046 56.2994 181.81 55.9983 182.359 55.3893C182.908 54.7804 183.183 53.7766 183.183 52.3646V40.647H187.887V52.1839C187.887 53.4152 187.699 54.5127 187.331 55.4696C186.955 56.4266 186.426 57.2497 185.729 57.9189C185.032 58.5881 184.195 59.1101 183.217 59.458C182.238 59.8127 181.126 59.9867 179.893 59.9867C177.421 59.9867 175.511 59.3242 174.144 57.9925C172.784 56.6608 172.101 54.7268 172.101 52.1772V40.647H176.804V52.0367Z" fill="black"/>
<path d="M206.38 58.0861C205.556 58.6951 204.598 59.1635 203.499 59.4981C202.4 59.8327 201.234 60 200.001 60C198.413 60 196.993 59.7792 195.74 59.3375C194.487 58.8958 193.421 58.2534 192.55 57.4169C191.679 56.5804 191.009 55.5499 190.553 54.3319C190.091 53.1207 189.863 51.7489 189.863 50.2231C189.863 48.7375 190.111 47.3857 190.6 46.1745C191.089 44.9632 191.786 43.926 192.691 43.0627C193.595 42.1994 194.681 41.5369 195.954 41.0685C197.227 40.6001 198.648 40.3658 200.215 40.3658C201.154 40.3658 202.105 40.4662 203.05 40.6737C204.001 40.8811 204.758 41.1488 205.328 41.4834L204.356 45.0368C203.063 44.5282 201.736 44.2739 200.39 44.2739C198.627 44.2739 197.274 44.7758 196.336 45.7729C195.398 46.77 194.922 48.1887 194.922 50.029C194.922 50.9525 195.043 51.7823 195.277 52.5251C195.512 53.2679 195.847 53.9037 196.276 54.4323C196.704 54.961 197.234 55.3692 197.85 55.6503C198.467 55.9313 199.15 56.0785 199.894 56.0785C200.698 56.0785 201.435 55.9915 202.098 55.8176V52.2374H198.922V48.7442H206.387V58.0861H206.38Z" fill="black"/>
<path d="M213.583 52.0367C213.583 53.6026 213.884 54.7068 214.48 55.3425C215.077 55.9782 215.867 56.2994 216.846 56.2994C217.824 56.2994 218.588 55.9983 219.137 55.3893C219.687 54.7804 219.961 53.7766 219.961 52.3646V40.647H224.665V52.1839C224.665 53.4152 224.477 54.5127 224.109 55.4696C223.734 56.4266 223.204 57.2497 222.508 57.9189C221.811 58.5881 220.973 59.1101 219.995 59.458C219.017 59.8127 217.904 59.9867 216.672 59.9867C214.199 59.9867 212.289 59.3242 210.923 57.9925C209.562 56.6608 208.879 54.7268 208.879 52.1772V40.647H213.583V52.0367Z" fill="black"/>
<path d="M239.775 59.7056L238.395 55.7105H231.955L230.575 59.7056H225.55L232.987 40.647H237.336L244.8 59.7056H239.775ZM233.195 52.1571H237.135L235.252 46.6965H235.105L233.195 52.1571Z" fill="black"/>
<path d="M250.864 52.6256L244.452 40.647H249.564L253.209 48.1955L256.881 40.647H261.993L255.554 52.6256V59.6989H250.851V52.6256H250.864Z" fill="black"/>
</g>
<defs>
<clipPath id="clip0">
<rect width="262" height="60" fill="white"/>
</clipPath>
</defs>
</svg>
