<svg width="25" height="30" viewBox="0 0 25 30" fill="none" xmlns="http://www.w3.org/2000/svg">
<path d="M16.8407 0H4.79146C3.03118 0 1.5985 1.43367 1.5985 3.19296V15H1.28664C0.576182 15 0 15.5756 0 16.2867V24.0897C0 24.8007 0.57612 25.3762 1.28664 25.3762H1.5985V26.807C1.5985 28.5683 3.03118 30 4.79146 30H21.2321C22.9913 30 24.4242 28.5682 24.4242 26.807V7.55689L16.8407 0ZM3.3754 17.6948C3.75247 17.6311 4.28248 17.5831 5.02921 17.5831C5.78385 17.5831 6.3217 17.7271 6.68309 18.0165C7.02831 18.2891 7.26127 18.7392 7.26127 19.2688C7.26127 19.7983 7.08474 20.2485 6.76355 20.5535C6.34578 20.9467 5.72797 21.1232 5.00526 21.1232C4.84441 21.1232 4.70024 21.1153 4.58749 21.0997V23.0345H3.3754V17.6948ZM21.2321 28.0446H4.79146C4.10987 28.0446 3.55485 27.4896 3.55485 26.807V25.3762H18.8809C19.5915 25.3762 20.1676 24.8007 20.1676 24.0897V16.2867C20.1676 15.5756 19.5915 15 18.8809 15H3.55485V3.19296C3.55485 2.51237 4.10993 1.95734 4.79146 1.95734L16.1091 1.94552V6.12894C16.1091 7.35087 17.1006 8.34326 18.3235 8.34326L22.4216 8.3315L22.4677 26.807C22.4677 27.4896 21.9137 28.0446 21.2321 28.0446ZM8.04285 23.01V17.6948C8.49241 17.6233 9.07836 17.5831 9.69673 17.5831C10.7244 17.5831 11.3908 17.7674 11.913 18.1606C12.4749 18.5784 12.8279 19.2443 12.8279 20.2004C12.8279 21.2359 12.4508 21.9509 11.9286 22.3921C11.3588 22.8657 10.4915 23.0904 9.43191 23.0904C8.79736 23.0904 8.3478 23.0502 8.04285 23.01ZM16.8055 19.8631V20.8584H14.8623V23.0345H13.634V17.6233H16.9418V18.6264H14.8623V19.8631H16.8055Z" fill="#FF3A3A"/>
</svg>
