<svg width="180" height="61" viewBox="0 0 180 61" fill="none" xmlns="http://www.w3.org/2000/svg">
<path fill-rule="evenodd" clip-rule="evenodd" d="M63.819 42.9791C63.2994 41.2101 61.0833 39.8699 59.5116 40.8456C57.4101 42.1498 55.92 41.3462 54.1751 40.3321C52.1526 39.1562 50.018 38.1805 47.9394 37.1022C45.8634 36.029 43.7823 34.9661 41.7393 33.8313C40.9752 33.4077 40.4759 32.735 41.5152 32.0392C42.5596 31.3383 46.3346 32.0649 47.1446 33.0688C48.9507 35.305 51.6176 35.7569 53.4822 34.1445C55.3851 32.4962 55.3876 29.7619 53.4924 27.9493C51.5056 26.0519 49.241 26.3087 47.2618 28.6579C46.2735 29.8312 42.4984 30.2574 41.3471 29.2407C40.3052 28.3215 40.3103 27.2484 41.4362 26.3908C42.6742 25.4486 43.9809 24.5859 45.2902 23.7438C46.3321 23.0763 47.1803 22.4832 48.6883 23.3176C50.5019 24.3215 53.3447 22.6321 53.8949 20.7065C54.7941 16.7115 51.4317 15.3072 49.2181 15.9028C46.8797 16.5318 46.6938 19.2353 45.7258 20.953C44.6483 22.8657 39.5207 25.4897 38.9679 25.0147C38.4152 24.5397 38.4839 24.3677 39.2379 22.4293C41.235 17.3714 43.7262 12.6473 46.2404 7.94114C46.6148 7.23766 47.272 7.20429 48.0336 7.25307C49.7072 7.36347 50.9171 6.51878 51.3018 4.90128C51.6788 3.31717 51.5336 1.74846 49.8855 0.783098C48.4208 -0.07443 46.9638 0.190017 45.7666 1.15795C44.4165 2.25425 44.1592 3.73566 45.0126 5.37369C45.3437 6.01299 45.9194 6.63688 45.3692 7.53805C42.4297 12.352 39.5665 17.2148 36.6041 22.0108C35.952 23.0685 35.0146 23.3253 34.1332 22.0749C32.9538 20.4035 33.5779 14.5369 35.1063 13.225C36.8944 11.6948 37.1084 9.12217 35.5928 7.40968C34.0466 5.66638 31.6369 5.71003 29.8513 7.51495C28.2618 9.12217 28.3942 11.6896 30.3709 13.1531C31.5274 14.0132 31.8534 14.9657 31.7541 16.2828C31.6522 17.6769 31.4968 19.0864 31.6012 20.4729C31.7795 22.7938 30.3098 23.4691 28.57 23.3946C26.6595 23.3099 25.9896 22.0236 26.3895 20.0698C26.9576 17.2867 25.3553 15.017 22.6654 14.5652C20.485 14.198 18.1058 16.2905 17.7645 18.2135C17.5352 19.4972 17.7645 23.2714 22.1229 23.6154C23.9874 23.6668 25.1847 23.5512 25.9004 26.1007C26.3972 28.4525 24.3288 28.7708 23.7633 28.7041C20.5945 28.3318 17.548 29.1919 15.6299 25.5538C14.5269 23.4588 11.7326 23.4511 9.9622 24.989C8.28101 26.4473 8.03392 29.1739 9.43237 30.8787C10.9327 32.7093 13.3195 32.9121 15.1917 31.3665C17.6091 29.3665 21.9165 29.5539 24.609 31.8338C24.3008 32.0315 24.0435 32.278 23.7404 32.3807C18.7681 34.0264 13.7653 35.5926 8.82612 37.3384C7.6824 37.7415 7.10417 37.4694 6.36037 36.7222C4.94409 35.2999 3.3062 35.1407 1.67085 36.3114C0.167967 37.3846 -0.341487 38.8994 0.236743 40.6787C0.812425 42.4476 2.15229 43.4875 3.94047 43.3745C5.79742 43.259 7.3538 42.1498 7.45824 40.1703C7.53211 38.7531 8.34214 38.6684 9.20821 38.4245C14.0888 37.0432 18.9719 35.6721 23.8601 34.3294C25.5769 33.857 27.3881 35.3384 26.9499 37.0509C26.3666 39.3359 24.6268 41.0689 23.5595 43.1383C22.9023 44.4066 21.8554 43.4669 21.0122 43.7185C18.7172 44.4117 17.4919 46.1114 17.925 48.4118C18.3478 50.6532 20.0315 51.6879 22.6425 51.3207C24.3288 51.0845 26.3411 48.8072 25.5744 47.4157C24.0257 44.6171 26.0278 43.0972 27.0595 41.1382C28.2134 38.9431 29.4615 37.7312 32.3374 38.5965C35.2515 39.472 35.9112 40.3115 34.309 42.9406C33.206 44.7506 33.2468 46.5787 34.5382 48.2963C35.8832 50.0909 37.7503 50.8535 39.8009 50.0576C41.7164 49.313 43.1123 47.9086 43.0334 45.4978C42.9417 42.7583 41.9075 41.4669 38.8533 40.8224C37.2154 40.4758 37.2409 39.2922 37.2969 38.0547C37.0906 34.0341 41.882 35.9186 42.9595 36.4116C46.8848 38.1959 50.777 40.0599 54.7279 41.7852C56.1645 42.4143 57.1452 42.9714 57.1936 44.8842C57.2395 46.8354 59.5728 48.0909 61.4552 47.5774C63.3758 47.0485 64.4227 45.0177 63.819 42.9791ZM50.7057 28.9198C51.824 28.8787 52.8327 29.9134 52.7817 30.9789C52.7283 32.0443 52.1984 32.8993 50.8713 32.9224C49.6588 32.9404 48.8946 32.3987 48.7571 31.1406C48.5991 29.6951 49.4983 28.9557 50.7057 28.9198ZM12.7005 30.2369C11.4192 30.2292 10.6245 29.4153 10.6933 28.0443C10.7544 26.8068 11.5695 26.2573 12.5298 26.093C14.0022 26.1803 14.5677 27.0455 14.5753 28.1726C14.5829 29.328 13.9003 30.2471 12.7005 30.2369ZM3.62206 41.413C2.42739 41.3411 1.75237 40.6581 1.80841 39.3564C1.87209 38.0239 2.67702 37.5823 3.8666 37.5181C5.05108 37.6157 5.89167 38.3577 5.88403 39.4617C5.87639 40.7275 4.92371 41.49 3.62206 41.413ZM32.8443 34.504C30.7097 34.4475 28.896 32.5681 28.9317 30.4423C28.9674 28.3626 30.967 26.5089 33.0557 26.6193C35.361 26.74 36.8664 28.396 36.7824 30.717C36.6983 33.1638 35.2362 34.5656 32.8443 34.504ZM38.3133 42.8944C40.0123 42.9483 40.9217 43.8187 40.9013 45.4772C40.8809 47.1204 39.7958 48.0909 38.3133 48.096C36.7976 48.1012 35.7558 47.0434 35.7456 45.4413C35.7303 43.7981 36.7212 42.9611 38.3133 42.8944Z" fill="white"/>
<path fill-rule="evenodd" clip-rule="evenodd" d="M9.3332 55.1847C7.54247 55.1668 5.68552 53.2463 5.72372 51.4491C5.76193 49.6673 7.49662 48.0139 9.3281 48.001C11.2233 47.9907 12.9783 49.8162 12.9147 51.7366C12.8637 53.4774 11.0704 55.1976 9.3332 55.1847Z" fill="white"/>
<path fill-rule="evenodd" clip-rule="evenodd" d="M50.2778 49.9266C52.7843 49.8676 54.1343 51.6956 54.0019 53.4363C53.8465 55.4852 51.8774 57.0385 50.1886 57.041C48.3316 57.0436 46.7574 55.2721 46.7906 53.2181C46.8262 51.1718 48.1279 49.9395 50.2778 49.9266Z" fill="white"/>
<path fill-rule="evenodd" clip-rule="evenodd" d="M65.1792 19.8233C65.1741 21.7797 63.712 23.3972 61.8932 23.4614C60.1178 23.5204 58.3296 21.6564 58.3424 19.754C58.3525 17.7359 60.0006 16.0697 61.934 16.1287C63.6891 16.1801 65.1843 17.8797 65.1792 19.8233Z" fill="white"/>
<path fill-rule="evenodd" clip-rule="evenodd" d="M9.25387 16.8631C6.79576 16.9144 5.43297 15.5665 5.45335 13.492C5.47118 11.5715 7.06577 9.93095 8.96348 10.0978C10.9911 10.2776 12.1221 11.6742 12.1323 13.5973C12.1425 15.5819 10.958 16.8014 9.25387 16.8631Z" fill="white"/>
<path fill-rule="evenodd" clip-rule="evenodd" d="M31.7055 60.9974C29.2474 61.0488 27.8872 59.7009 27.9025 57.6264C27.9203 55.7085 29.5149 54.0653 31.4126 54.2322C33.4428 54.4145 34.5763 55.8086 34.584 57.7342C34.5941 59.7163 33.4071 60.9384 31.7055 60.9974Z" fill="white"/>
<path fill-rule="evenodd" clip-rule="evenodd" d="M21.6211 6.81917C19.163 6.87052 17.8002 5.52261 17.818 3.44811C17.8359 1.53023 19.4305 -0.110373 21.3282 0.0565112C23.3583 0.236233 24.4919 1.63036 24.4995 3.55594C24.5072 5.53545 23.3252 6.75755 21.6211 6.81917Z" fill="white"/>
<path d="M78.3819 0H86.7141C89.9898 0 92.4989 0.657267 94.2412 1.97437C95.981 3.2889 96.8522 5.36853 96.8522 8.20556C96.8522 9.16066 96.7121 10.013 96.4293 10.7602C96.1466 11.5099 95.7951 12.1543 95.3722 12.696C94.9494 13.2378 94.4959 13.7025 94.0094 14.0902C93.5229 14.4778 93.0873 14.7859 92.7027 15.0196L98.3856 25.1225H91.5131L86.9815 16.3752H84.5234V25.1225H78.3794V0H78.3819ZM84.5259 4.95517V11.6896H88.7875C89.1467 11.5099 89.5033 11.135 89.8625 10.5676C90.2216 10.0002 90.3999 9.30443 90.3999 8.47771C90.3999 7.31723 90.0866 6.43916 89.46 5.84608C88.8334 5.253 87.9826 4.95517 86.9076 4.95517H84.5259Z" fill="white"/>
<path d="M101.19 0H117.279V5.0322H107.334V9.98737H116.703V14.863H107.334V20.0492H117.664V25.1199H101.19V0Z" fill="white"/>
<path d="M121.12 25.1199V0H129.722C131.77 0 133.607 0.284987 135.232 0.852393C136.857 1.4198 138.233 2.23882 139.361 3.30944C140.487 4.38007 141.351 5.67663 141.954 7.19913C142.555 8.72162 142.856 10.4367 142.856 12.3469C142.856 14.3597 142.568 16.1544 141.992 17.7257C141.417 19.2995 140.579 20.6346 139.478 21.7309C138.378 22.8272 137.033 23.6667 135.446 24.247C133.859 24.8272 132.04 25.1173 129.992 25.1173H121.12V25.1199ZM129.76 20.3188C130.81 20.3188 131.732 20.1314 132.524 19.7565C133.316 19.3817 133.989 18.8528 134.539 18.1698C135.089 17.4869 135.505 16.673 135.787 15.7308C136.067 14.7885 136.21 13.7513 136.21 12.6139C136.21 10.0593 135.647 8.11057 134.521 6.77036C133.395 5.43015 131.872 4.75748 129.951 4.75748H127.264V20.3162H129.76V20.3188Z" fill="white"/>
<path d="M78.6011 28.9044H79.5155V36.3782H78.6011V28.9044Z" fill="white"/>
<path d="M81.459 36.3782V28.9044H83.7337C84.4953 28.9044 85.0914 29.0687 85.5219 29.3999C85.9523 29.7311 86.1663 30.1932 86.1663 30.794C86.1663 31.1483 86.0772 31.4692 85.8989 31.7619C85.7206 32.0546 85.4709 32.2831 85.15 32.4526C85.5754 32.5835 85.9065 32.8146 86.1434 33.1432C86.3803 33.4744 86.4975 33.8647 86.4975 34.3191C86.4975 34.9712 86.2606 35.477 85.7893 35.839C85.3181 36.201 84.6609 36.3808 83.8254 36.3808H81.459V36.3782ZM82.3709 32.1624H84.3705C84.638 32.0623 84.8417 31.9006 84.9869 31.6721C85.1321 31.4461 85.2035 31.1791 85.2035 30.871C85.2035 30.4782 85.0659 30.1752 84.7933 29.9544C84.5182 29.7362 84.1387 29.6258 83.6496 29.6258H82.3709V32.1624ZM82.3709 32.8993V35.6516H83.8228C84.3629 35.6516 84.7832 35.5412 85.0863 35.3178C85.3869 35.0945 85.5371 34.7889 85.5371 34.3961C85.5371 33.9289 85.3869 33.5617 85.0863 33.2973C84.7857 33.0328 84.3654 32.8993 83.8228 32.8993H82.3709Z" fill="white"/>
<path d="M92.1758 29.6643H88.9076V32.2318H92.0611V32.9917H88.9076V35.6182H92.2904V36.3782H88.0059V28.9044H92.1758V29.6643Z" fill="white"/>
<path d="M93.8999 36.3782V28.9044H96.1619C96.9464 28.9044 97.5603 29.0943 98.001 29.4743C98.4417 29.8543 98.6633 30.3832 98.6633 31.0584C98.6633 31.2741 98.6226 31.4898 98.5436 31.7106C98.4646 31.9288 98.3525 32.1316 98.2124 32.3139C98.0723 32.4988 97.9068 32.6631 97.7157 32.8094C97.5247 32.9558 97.3158 33.0662 97.0866 33.1432L98.7881 36.3782H97.8049L96.251 33.3152H94.8118V36.3782H93.8999ZM94.8144 32.5784H96.6662C96.9872 32.4859 97.2394 32.3088 97.4253 32.0418C97.6113 31.7773 97.7055 31.4769 97.7055 31.138C97.7055 30.6554 97.568 30.2831 97.2954 30.0212C97.0203 29.7593 96.628 29.6284 96.1186 29.6284H94.8169V32.5784H94.8144Z" fill="white"/>
<path d="M103.029 36.4937C102.512 36.4937 102.046 36.4064 101.636 36.2293C101.226 36.0521 100.877 35.8005 100.592 35.4745C100.306 35.1484 100.087 34.7479 99.9343 34.2703C99.7815 33.7953 99.7051 33.2562 99.7051 32.658C99.7051 32.052 99.784 31.5103 99.9394 31.0353C100.095 30.5604 100.319 30.1547 100.607 29.8209C100.897 29.4872 101.251 29.233 101.674 29.0558C102.097 28.8787 102.571 28.7914 103.095 28.7914C103.613 28.7914 104.076 28.8787 104.484 29.0558C104.891 29.233 105.238 29.4846 105.523 29.8107C105.808 30.1367 106.027 30.5372 106.18 31.0148C106.333 31.4898 106.409 32.0289 106.409 32.6272C106.409 33.2331 106.333 33.7748 106.18 34.2498C106.027 34.7248 105.806 35.1304 105.513 35.4642C105.22 35.798 104.863 36.0521 104.445 36.2293C104.025 36.4039 103.554 36.4937 103.029 36.4937ZM103.098 35.7107C103.837 35.7107 104.415 35.4462 104.828 34.9173C105.24 34.3884 105.449 33.6516 105.449 32.7067C105.449 31.7157 105.235 30.9455 104.81 30.3935C104.382 29.8415 103.786 29.5642 103.016 29.5642C102.278 29.5642 101.7 29.8286 101.284 30.3575C100.869 30.8864 100.663 31.6284 100.663 32.5809C100.663 33.5643 100.877 34.3319 101.307 34.8839C101.74 35.4334 102.336 35.7107 103.098 35.7107Z" fill="white"/>
<path d="M111.825 34.3756H108.705L107.984 36.3782H107L109.833 28.9044H110.679L113.524 36.3782H112.541L111.825 34.3756ZM108.982 33.6156H111.552L110.261 29.9185L108.982 33.6156Z" fill="white"/>
<path d="M114.67 28.9044H116.054L118.328 34.3063L120.603 28.9044H121.986V36.3782H121.107V29.8132L118.743 35.4205H117.921L115.567 29.8132V36.3782H114.676V28.9044H114.67Z" fill="white"/>
<path d="M128.028 29.6643H124.76V32.2318H127.914V32.9917H124.76V35.6182H128.143V36.3782H123.858V28.9044H128.028V29.6643Z" fill="white"/>
<path d="M129.753 36.3782V28.9044H132.015C132.799 28.9044 133.413 29.0943 133.854 29.4743C134.295 29.8543 134.516 30.3832 134.516 31.0584C134.516 31.2741 134.476 31.4898 134.397 31.7106C134.318 31.9288 134.206 32.1316 134.065 32.3139C133.925 32.4988 133.76 32.6631 133.569 32.8094C133.378 32.9558 133.169 33.0662 132.94 33.1432L134.641 36.3782H133.658L132.104 33.3152H130.665V36.3782H129.753ZM130.667 32.5784H132.519C132.84 32.4859 133.092 32.3088 133.278 32.0418C133.464 31.7773 133.559 31.4769 133.559 31.138C133.559 30.6554 133.421 30.2831 133.148 30.0212C132.873 29.7593 132.481 29.6284 131.972 29.6284H130.67V32.5784H130.667Z" fill="white"/>
<path d="M136.001 28.9044H136.916V36.3782H136.001V28.9044Z" fill="white"/>
<path d="M138.414 32.658C138.414 32.0906 138.498 31.5668 138.666 31.0918C138.834 30.6168 139.073 30.206 139.387 29.8646C139.7 29.5231 140.079 29.2587 140.53 29.0712C140.979 28.8838 141.483 28.7888 142.038 28.7888C142.336 28.7888 142.627 28.8248 142.912 28.8992C143.197 28.9711 143.439 29.0584 143.638 29.1585L143.409 29.862C143.225 29.785 143.019 29.7208 142.787 29.6669C142.555 29.613 142.306 29.5873 142.038 29.5873C141.641 29.5873 141.279 29.6515 140.953 29.7824C140.625 29.9134 140.347 30.1059 140.113 30.3575C139.881 30.6117 139.7 30.9224 139.57 31.2895C139.44 31.6592 139.376 32.0803 139.376 32.5553C139.376 33.0302 139.438 33.4641 139.56 33.8518C139.682 34.2395 139.863 34.5707 140.102 34.8429C140.342 35.115 140.637 35.3255 140.989 35.4719C141.34 35.6182 141.743 35.6901 142.199 35.6901C142.466 35.6901 142.724 35.6644 142.976 35.6105C143.228 35.5566 143.439 35.4924 143.615 35.4154L143.855 36.106C143.633 36.2216 143.368 36.314 143.06 36.3885C142.752 36.4603 142.438 36.4989 142.117 36.4989C141.539 36.4989 141.019 36.4064 140.563 36.2216C140.108 36.0367 139.718 35.7774 139.397 35.4436C139.076 35.1099 138.834 34.7068 138.666 34.2344C138.498 33.762 138.414 33.2356 138.414 32.658Z" fill="white"/>
<path d="M149.117 34.3756H145.997L145.276 36.3782H144.292L147.125 28.9044H147.971L150.816 36.3782H149.833L149.117 34.3756ZM146.274 33.6156H148.844L147.553 29.9185L146.274 33.6156Z" fill="white"/>
<path d="M152.854 30.0674V36.3782H151.962V28.9044H153.116L156.614 35.2151V28.9044H157.493V36.3782H156.339L152.854 30.0674Z" fill="white"/>
<path d="M163.456 34.3756H160.335L159.615 36.3782H158.631L161.464 28.9044H162.31L165.155 36.3782H164.172L163.456 34.3756ZM160.613 33.6156H163.183L161.892 29.9185L160.613 33.6156Z" fill="white"/>
<path d="M168.599 36.3782V28.9044H170.782C171.36 28.9044 171.869 28.9942 172.307 29.1739C172.746 29.3537 173.112 29.6104 173.41 29.939C173.708 30.2702 173.93 30.6605 174.078 31.1149C174.226 31.5668 174.299 32.07 174.299 32.6246C174.299 33.1843 174.218 33.6952 174.055 34.1574C173.892 34.6169 173.652 35.0123 173.342 35.3435C173.028 35.6747 172.649 35.9289 172.198 36.1086C171.75 36.2883 171.235 36.3782 170.654 36.3782H168.599ZM170.779 35.6516C171.146 35.6516 171.485 35.5874 171.795 35.4616C172.109 35.3358 172.379 35.1458 172.605 34.8968C172.835 34.6477 173.013 34.3371 173.143 33.9699C173.273 33.6002 173.337 33.1792 173.337 32.7042C173.337 31.7363 173.105 30.9814 172.639 30.4423C172.175 29.9005 171.51 29.6309 170.652 29.6309H169.498V35.6542H170.779V35.6516Z" fill="white"/>
<path d="M179.886 29.6643H176.618V32.2318H179.771V32.9917H176.618V35.6182H180V36.3782H175.716V28.9044H179.886V29.6643Z" fill="white"/>
<path d="M78.6011 40.3757H79.5155V47.8496H78.6011V40.3757Z" fill="white"/>
<path d="M82.3481 41.5388V47.8496H81.4565V40.3757H82.6105L86.1079 46.6865V40.3757H86.9867V47.8496H85.8327L82.3481 41.5388Z" fill="white"/>
<path d="M94.6539 40.3757L91.8774 47.8496H90.9069L88.1304 40.3757H89.1136L91.3883 46.7661L93.6732 40.3757H94.6539Z" fill="white"/>
<path d="M99.8862 41.1357H96.618V43.7031H99.7716V44.4631H96.618V47.0896H100.001V47.8496H95.7163V40.3757H99.8862V41.1357Z" fill="white"/>
<path d="M101.348 46.7096C101.562 46.8175 101.822 46.9202 102.13 47.0151C102.438 47.1101 102.782 47.1589 103.164 47.1589C103.674 47.1589 104.079 47.0614 104.374 46.8662C104.67 46.6711 104.82 46.3887 104.82 46.019C104.82 45.6955 104.718 45.431 104.512 45.2256C104.305 45.0177 103.951 44.8123 103.45 44.6043L102.663 44.2577C102.191 44.0575 101.822 43.8058 101.56 43.5029C101.297 43.1999 101.165 42.7943 101.165 42.2885C101.165 41.9727 101.231 41.6903 101.363 41.4361C101.496 41.1819 101.677 40.9688 101.901 40.7968C102.125 40.6248 102.382 40.4913 102.673 40.3988C102.963 40.3064 103.266 40.2602 103.587 40.2602C103.974 40.2602 104.326 40.3038 104.639 40.386C104.952 40.4707 105.215 40.5657 105.426 40.6736L105.22 41.4001C105.021 41.3154 104.772 41.2384 104.471 41.1639C104.17 41.092 103.872 41.0535 103.574 41.0535C103.118 41.0535 102.757 41.1614 102.489 41.377C102.222 41.5927 102.089 41.8725 102.089 42.2166C102.089 42.5478 102.179 42.8071 102.357 42.9997C102.535 43.1922 102.843 43.3745 103.276 43.5517L104.109 43.9214C104.649 44.1679 105.057 44.4503 105.332 44.7686C105.607 45.087 105.742 45.4798 105.742 45.9497C105.742 46.5941 105.513 47.0922 105.057 47.4413C104.601 47.7905 103.967 47.9651 103.159 47.9651C102.719 47.9651 102.316 47.9086 101.954 47.7982C101.593 47.6878 101.312 47.5671 101.114 47.4362L101.348 46.7096Z" fill="white"/>
<path d="M106.422 40.3757H111.632V41.1357H109.484V47.8496H108.57V41.1357H106.422V40.3757Z" fill="white"/>
<path d="M112.775 40.3757H113.69V47.8496H112.775V40.3757Z" fill="white"/>
<path d="M120.944 47.3541C120.708 47.5312 120.392 47.6775 119.997 47.7905C119.599 47.9061 119.21 47.9625 118.82 47.9625C118.234 47.9625 117.714 47.8675 117.261 47.6801C116.808 47.4927 116.428 47.2282 116.117 46.8868C115.809 46.5453 115.577 46.1396 115.419 45.6724C115.264 45.2051 115.185 44.689 115.185 44.1293C115.185 43.5696 115.267 43.0536 115.43 42.5812C115.593 42.1088 115.832 41.7005 116.143 41.3539C116.456 41.0073 116.836 40.7403 117.287 40.5477C117.735 40.3552 118.249 40.2602 118.83 40.2602C119.136 40.2602 119.444 40.2987 119.755 40.3757C120.068 40.4528 120.356 40.5606 120.623 40.6992L120.348 41.3796C120.157 41.3103 119.931 41.2384 119.668 41.1665C119.406 41.0946 119.113 41.0561 118.795 41.0561C118.412 41.0561 118.061 41.1203 117.737 41.2461C117.414 41.3719 117.134 41.5619 116.897 41.8161C116.66 42.0702 116.477 42.3835 116.342 42.7558C116.209 43.128 116.143 43.5594 116.143 44.0523C116.143 44.5427 116.207 44.9843 116.336 45.372C116.466 45.7597 116.652 46.0857 116.897 46.3502C117.141 46.6146 117.437 46.8175 117.783 46.9535C118.13 47.0922 118.517 47.1615 118.942 47.1615C119.126 47.1615 119.319 47.1461 119.526 47.1153C119.732 47.0845 119.898 47.0434 120.027 46.9895V44.6967L118.588 44.6736V43.9702H120.942V47.3541H120.944Z" fill="white"/>
<path d="M126.668 45.8444H123.548L122.827 47.847H121.844L124.676 40.3732H125.522L128.367 47.847H127.384L126.668 45.8444ZM123.823 45.0844H126.393L125.102 41.3873L123.823 45.0844Z" fill="white"/>
<path d="M129.513 47.8496V40.3757H131.694C132.272 40.3757 132.781 40.4656 133.219 40.6453C133.658 40.825 134.024 41.0818 134.322 41.4104C134.62 41.7416 134.842 42.1319 134.99 42.5863C135.138 43.0382 135.211 43.5414 135.211 44.096C135.211 44.6557 135.13 45.1666 134.967 45.6287C134.804 46.0883 134.564 46.4837 134.254 46.8149C133.94 47.1461 133.561 47.4003 133.11 47.58C132.662 47.7597 132.147 47.8496 131.566 47.8496H129.513ZM131.694 47.123C132.06 47.123 132.399 47.0588 132.71 46.933C133.023 46.8072 133.293 46.6172 133.52 46.3682C133.749 46.1191 133.928 45.8085 134.058 45.4413C134.187 45.0716 134.251 44.6505 134.251 44.1756C134.251 43.2076 134.019 42.4528 133.553 41.9136C133.09 41.3719 132.425 41.1023 131.566 41.1023H130.412V47.1256H131.694V47.123Z" fill="white"/>
<path d="M139.59 47.9625C139.073 47.9625 138.607 47.8752 138.197 47.6981C137.787 47.5209 137.438 47.2693 137.153 46.9433C136.867 46.6172 136.648 46.2167 136.495 45.7391C136.343 45.2641 136.266 44.725 136.266 44.1268C136.266 43.5209 136.345 42.9791 136.5 42.5041C136.656 42.0292 136.88 41.6235 137.168 41.2897C137.458 40.956 137.812 40.7018 138.235 40.5246C138.658 40.3475 139.132 40.2602 139.657 40.2602C140.174 40.2602 140.637 40.3475 141.045 40.5246C141.452 40.7018 141.799 40.9534 142.084 41.2795C142.369 41.6055 142.588 42.0061 142.741 42.4836C142.894 42.9586 142.971 43.4977 142.971 44.096C142.971 44.7019 142.894 45.2436 142.741 45.7186C142.588 46.1936 142.367 46.5992 142.074 46.933C141.781 47.2668 141.424 47.5209 141.007 47.6981C140.586 47.8752 140.115 47.9625 139.59 47.9625ZM139.659 47.1795C140.398 47.1795 140.976 46.915 141.389 46.3861C141.801 45.8572 142.01 45.1204 142.01 44.1756C142.01 43.1845 141.796 42.4143 141.371 41.8623C140.943 41.3103 140.347 41.033 139.578 41.033C138.839 41.033 138.261 41.2974 137.845 41.8263C137.43 42.3552 137.224 43.0972 137.224 44.0497C137.224 45.0331 137.438 45.8007 137.868 46.3527C138.299 46.9047 138.895 47.1795 139.659 47.1795Z" fill="white"/>
<path d="M144.479 47.8496V40.3757H146.74C147.525 40.3757 148.139 40.5657 148.58 40.9457C149.02 41.3257 149.242 41.8546 149.242 42.5298C149.242 42.7455 149.201 42.9612 149.122 43.182C149.043 43.4002 148.931 43.603 148.791 43.7853C148.651 43.9702 148.485 44.1345 148.294 44.2808C148.103 44.4272 147.894 44.5376 147.665 44.6146L149.367 47.8496H148.383L146.83 44.7866H145.39V47.8496H144.479ZM145.393 44.0472H147.245C147.566 43.9548 147.818 43.7776 148.004 43.5106C148.19 43.2461 148.284 42.9457 148.284 42.6068C148.284 42.1242 148.147 41.7519 147.874 41.49C147.599 41.2281 147.207 41.0972 146.697 41.0972H145.396V44.0472H145.393Z" fill="white"/>
<path d="M154.933 41.1357H151.664V43.7031H154.818V44.4631H151.664V47.0896H155.047V47.8496H150.763V40.3757H154.933V41.1357Z" fill="white"/>
<path d="M156.395 46.7096C156.608 46.8175 156.868 46.9202 157.177 47.0151C157.485 47.1101 157.829 47.1589 158.211 47.1589C158.72 47.1589 159.125 47.0614 159.421 46.8662C159.716 46.6711 159.866 46.3887 159.866 46.019C159.866 45.6955 159.765 45.431 159.558 45.2256C159.352 45.0177 158.998 44.8123 158.496 44.6043L157.709 44.2577C157.238 44.0575 156.868 43.8058 156.606 43.5029C156.344 43.1999 156.211 42.7943 156.211 42.2885C156.211 41.9727 156.277 41.6903 156.41 41.4361C156.542 41.1819 156.723 40.9688 156.947 40.7968C157.171 40.6248 157.429 40.4913 157.719 40.3988C158.009 40.3064 158.313 40.2602 158.634 40.2602C159.021 40.2602 159.372 40.3038 159.686 40.386C159.999 40.4707 160.261 40.5657 160.473 40.6736L160.266 41.4001C160.068 41.3154 159.818 41.2384 159.517 41.1639C159.217 41.092 158.919 41.0535 158.621 41.0535C158.165 41.0535 157.803 41.1614 157.536 41.377C157.268 41.5927 157.136 41.8725 157.136 42.2166C157.136 42.5478 157.225 42.8071 157.403 42.9997C157.582 43.1922 157.89 43.3745 158.323 43.5517L159.156 43.9214C159.696 44.1679 160.103 44.4503 160.378 44.7686C160.654 45.087 160.789 45.4798 160.789 45.9497C160.789 46.5941 160.559 47.0922 160.103 47.4413C159.647 47.7905 159.013 47.9651 158.206 47.9651C157.765 47.9651 157.362 47.9086 157.001 47.7982C156.639 47.6878 156.359 47.5671 156.16 47.4362L156.395 46.7096Z" fill="white"/>
<path d="M168.757 41.1357H165.489V43.7031H168.642V44.4631H165.489V47.0896H168.871V47.8496H164.587V40.3757H168.757V41.1357Z" fill="white"/>
<path d="M171.375 41.5388V47.8496H170.483V40.3757H171.637L175.135 46.6865V40.3757H176.014V47.8496H174.86L171.375 41.5388Z" fill="white"/>
<path d="M78.5986 59.3183V51.8753H80.7485C81.5305 51.8753 82.1393 52.0704 82.58 52.4607C83.0207 52.8509 83.2398 53.3901 83.2398 54.0782C83.2398 54.8048 83.0156 55.3722 82.5673 55.7804C82.119 56.1886 81.4949 56.394 80.6899 56.394H79.5055V59.3183H78.5986ZM79.508 55.6597H80.7485C81.2274 55.6597 81.6019 55.5288 81.8744 55.2643C82.147 54.9999 82.2845 54.6327 82.2845 54.1578C82.2845 53.6545 82.147 53.2669 81.8744 52.9998C81.6019 52.7328 81.207 52.5993 80.6899 52.5993H79.5055V55.6597H79.508Z" fill="white"/>
<path d="M85.4383 56.3709C85.4383 57.1129 85.5988 57.6752 85.9223 58.0577C86.2458 58.4403 86.6941 58.6303 87.2698 58.6303C87.8149 58.6303 88.2479 58.448 88.5663 58.0808C88.8847 57.7137 89.0452 57.1874 89.0452 56.4967V51.8753H89.9444V56.4171C89.9444 57.3645 89.7024 58.1065 89.221 58.6354C88.7395 59.1669 88.0671 59.4313 87.201 59.4313C86.3655 59.4313 85.7108 59.172 85.2371 58.6508C84.7633 58.1296 84.5264 57.3979 84.5264 56.4479V51.8702H85.4357V56.3709H85.4383Z" fill="white"/>
<path d="M91.6968 59.3183V51.8753H93.9613C94.7204 51.8753 95.3139 52.0396 95.7418 52.3683C96.1698 52.6969 96.3837 53.159 96.3837 53.7572C96.3837 54.109 96.2946 54.4299 96.1163 54.72C95.938 55.0102 95.6883 55.2412 95.3699 55.4081C95.7953 55.5391 96.1239 55.7676 96.3608 56.0962C96.5951 56.4248 96.7149 56.8151 96.7149 57.2669C96.7149 57.9165 96.4805 58.4223 96.0093 58.7817C95.538 59.1412 94.8859 59.3209 94.053 59.3209H91.6968V59.3183ZM92.6061 55.1206H94.5981C94.863 55.0204 95.0693 54.8587 95.212 54.6327C95.3572 54.4068 95.4285 54.1424 95.4285 53.8343C95.4285 53.444 95.2909 53.1411 95.0184 52.9228C94.7458 52.7046 94.3663 52.5968 93.8798 52.5968H92.6061V55.1206ZM92.6061 55.8549V58.5969H94.0504C94.5879 58.5969 95.0082 58.4865 95.3088 58.2631C95.6094 58.0423 95.7571 57.7368 95.7571 57.3465C95.7571 56.8793 95.6068 56.5147 95.3088 56.2502C95.0082 55.9858 94.5905 55.8549 94.0504 55.8549H92.6061Z" fill="white"/>
<path d="M102.347 59.3183H98.2969V51.8753H99.2062V58.5635H102.347V59.3183Z" fill="white"/>
<path d="M103.485 51.8753H104.395V59.3183H103.485V51.8753Z" fill="white"/>
<path d="M105.888 55.6135C105.888 55.0487 105.972 54.5275 106.137 54.0525C106.303 53.5775 106.542 53.1719 106.853 52.8304C107.164 52.4889 107.543 52.227 107.992 52.0396C108.44 51.8522 108.939 51.7598 109.495 51.7598C109.79 51.7598 110.08 51.7957 110.366 51.8676C110.651 51.9395 110.891 52.0268 111.089 52.1243L110.863 52.8253C110.682 52.7482 110.473 52.684 110.244 52.6301C110.012 52.5762 109.765 52.5505 109.497 52.5505C109.102 52.5505 108.743 52.6147 108.417 52.7457C108.091 52.8766 107.811 53.0666 107.582 53.3182C107.35 53.5698 107.169 53.8805 107.042 54.2476C106.912 54.6148 106.848 55.0358 106.848 55.5108C106.848 55.9858 106.909 56.4145 107.029 56.8022C107.151 57.1874 107.329 57.5186 107.569 57.7881C107.808 58.0603 108.101 58.2682 108.45 58.412C108.799 58.5584 109.202 58.6303 109.658 58.6303C109.923 58.6303 110.182 58.6046 110.432 58.5507C110.682 58.4967 110.896 58.4326 111.069 58.3555L111.308 59.0436C111.089 59.1591 110.824 59.2516 110.519 59.3235C110.21 59.3954 109.897 59.4313 109.579 59.4313C109.003 59.4313 108.486 59.3389 108.03 59.1566C107.574 58.9743 107.187 58.715 106.868 58.3812C106.55 58.0474 106.308 57.6469 106.14 57.1771C105.972 56.7098 105.888 56.1886 105.888 55.6135Z" fill="white"/>
<path d="M112.543 51.8753H113.453V59.3183H112.543V51.8753Z" fill="white"/>
<path d="M115.389 59.3183V51.8753H117.561C118.137 51.8753 118.644 51.9652 119.08 52.1449C119.515 52.3246 119.882 52.5788 120.178 52.9074C120.473 53.2361 120.695 53.6263 120.842 54.0782C120.99 54.53 121.064 55.0307 121.064 55.5801C121.064 56.1373 120.982 56.6482 120.819 57.1052C120.656 57.5648 120.42 57.9576 120.109 58.2862C119.798 58.6149 119.418 58.869 118.97 59.0488C118.522 59.2285 118.01 59.3183 117.434 59.3183H115.389ZM117.561 58.5969C117.926 58.5969 118.262 58.5327 118.575 58.4069C118.886 58.2811 119.156 58.0937 119.383 57.8446C119.609 57.5956 119.788 57.2875 119.918 56.9203C120.048 56.5532 120.111 56.1321 120.111 55.6572C120.111 54.6944 119.879 53.9421 119.416 53.4029C118.952 52.8638 118.293 52.5942 117.437 52.5942H116.288V58.5943H117.561V58.5969Z" fill="white"/>
<path d="M126.337 57.3234H123.229L122.513 59.3183H121.535L124.358 51.8753H125.201L128.033 59.3183H127.055L126.337 57.3234ZM123.504 56.566H126.064L124.778 52.8843L123.504 56.566Z" fill="white"/>
<path d="M129.169 59.3183V51.8753H131.342C131.918 51.8753 132.425 51.9652 132.86 52.1449C133.296 52.3246 133.663 52.5788 133.958 52.9074C134.254 53.2361 134.475 53.6263 134.623 54.0782C134.771 54.53 134.845 55.0307 134.845 55.5801C134.845 56.1373 134.763 56.6482 134.6 57.1052C134.437 57.5648 134.2 57.9576 133.89 58.2862C133.579 58.6149 133.199 58.869 132.751 59.0488C132.303 59.2285 131.791 59.3183 131.215 59.3183H129.169ZM131.345 58.5969C131.709 58.5969 132.045 58.5327 132.359 58.4069C132.669 58.2811 132.939 58.0937 133.166 57.8446C133.393 57.5956 133.571 57.2875 133.701 56.9203C133.831 56.5532 133.895 56.1321 133.895 55.6572C133.895 54.6944 133.663 53.9421 133.199 53.4029C132.736 52.8638 132.076 52.5942 131.22 52.5942H130.071V58.5943H131.345V58.5969Z" fill="white"/>
</svg>
