<svg width="95" height="47" viewBox="0 0 95 47" fill="none" xmlns="http://www.w3.org/2000/svg">
<path d="M44.8711 8.56641L81.2136 19.9481C90.9636 23.0098 94.9999 28.6508 94.9999 37.6681C94.9999 41.1859 93.9882 44.5989 93.2963 46.1979L85.1503 44.5255C85.4281 43.7233 86.1987 41.5319 86.1987 38.4336C86.1987 35.613 84.8043 33.3168 81.6696 32.7244L78.4354 34.4334L44.8711 47V34.3653L69.241 27.2301V26.8841L44.8711 21.0281V8.56641Z" fill="white"/>
<path d="M18.0061 37.9355C14.0013 37.4637 11.417 34.6222 11.417 27.681V0H0V28.027C0 39.912 6.74116 46.5858 18.0061 46.9843V37.9355Z" fill="white"/>
<path d="M26.8808 8.56641V28.4831C26.8808 34.9105 24.3752 37.6681 20.1606 37.9932V46.9738C31.3365 46.4967 38.3031 39.5502 38.3031 28.0322V8.56641H26.8808Z" fill="white"/>
</svg>
